<?xml version="1.0" encoding="utf-8"?>
<!-- Generator: Adobe Illustrator 16.0.0, SVG Export Plug-In . SVG Version: 6.00 Build 0)  -->
<!DOCTYPE svg PUBLIC "-//W3C//DTD SVG 1.1//EN" "http://www.w3.org/Graphics/SVG/1.1/DTD/svg11.dtd">
<svg version="1.1" id="Layer_1" xmlns="http://www.w3.org/2000/svg" xmlns:xlink="http://www.w3.org/1999/xlink" x="0px" y="0px"
	 width="250px" height="250px" viewBox="0 0 250 250" enable-background="new 0 0 250 250" xml:space="preserve">
<path fill="#2D4D79" d="M156.428,215.248c0,5.366-4.352,9.715-9.718,9.715h-46.034c-5.368,0-9.718-4.349-9.718-9.715
	c0-5.368,4.35-9.721,9.718-9.721h46.034C152.076,205.527,156.428,209.88,156.428,215.248"/>
<path fill="#2D4D79" d="M99.744,230.316L99.744,230.316c0,10.251,5.61,18.339,22.08,18.339c16.465,0,24.796-8.088,24.796-18.339
	H99.744z"/>
<g>
	<g>
		<path fill="#CAAE6B" d="M148.536,163.903c0,4.886-4.166,8.844-9.303,8.844c-5.139,0-9.303-3.958-9.303-8.844
			c0-4.887,4.164-8.846,9.303-8.846C144.37,155.058,148.536,159.017,148.536,163.903"/>
		<path fill="#BE9769" d="M172.459,111.465c0,4.883-4.162,8.845-9.303,8.845c-5.138,0-9.305-3.961-9.305-8.845
			c0-4.886,4.167-8.846,9.305-8.846C168.297,102.62,172.459,106.579,172.459,111.465"/>
		<path fill="#D5DF8F" d="M158.226,30.048c0,3.837-3.272,6.948-7.311,6.948c-4.036,0-7.309-3.111-7.309-6.948
			s3.272-6.948,7.309-6.948C154.953,23.1,158.226,26.211,158.226,30.048"/>
		<path fill="#C7D47A" d="M149.864,74.083c0,8.723-7.437,15.794-16.612,15.794c-9.173,0-16.612-7.071-16.612-15.794
			c0-8.723,7.439-15.793,16.612-15.793C142.428,58.29,149.864,65.36,149.864,74.083"/>
	</g>
	<g>
		<g>
			<defs>
				<path id="SVGID_1_" d="M95.174,37.05c0,7.674,5.95,13.898,13.292,13.898c7.341,0,13.292-6.225,13.292-13.898
					c0-7.678-5.951-13.901-13.292-13.901C101.124,23.149,95.174,29.372,95.174,37.05"/>
			</defs>
			<clipPath id="SVGID_2_">
				<use xlink:href="#SVGID_1_"  overflow="visible"/>
			</clipPath>
			
				<radialGradient id="SVGID_3_" cx="24.9121" cy="223.2656" r="1.2783" gradientTransform="matrix(10.9299 0 0 10.3912 -163.8178 -2282.9497)" gradientUnits="userSpaceOnUse">
				<stop  offset="0" style="stop-color:#FFFFFF"/>
				<stop  offset="1" style="stop-color:#6B9FD5"/>
			</radialGradient>
			<rect x="95.174" y="23.149" clip-path="url(#SVGID_2_)" fill="url(#SVGID_3_)" width="26.583" height="27.799"/>
		</g>
		<g>
			<defs>
				<path id="SVGID_4_" d="M122.059,8.471c0,3.837,2.978,6.949,6.646,6.949c3.671,0,6.646-3.111,6.646-6.949
					c0-3.837-2.975-6.948-6.646-6.948C125.037,1.522,122.059,4.634,122.059,8.471"/>
			</defs>
			<clipPath id="SVGID_5_">
				<use xlink:href="#SVGID_4_"  overflow="visible"/>
			</clipPath>
			
				<radialGradient id="SVGID_6_" cx="25.5273" cy="220.3203" r="1.2783" gradientTransform="matrix(5.4647 0 0 5.1953 -10.7933 -1136.1573)" gradientUnits="userSpaceOnUse">
				<stop  offset="0" style="stop-color:#FFFFFF"/>
				<stop  offset="1" style="stop-color:#6B9FD5"/>
			</radialGradient>
			<rect x="122.059" y="1.522" clip-path="url(#SVGID_5_)" fill="url(#SVGID_6_)" width="13.292" height="13.897"/>
		</g>
	</g>
	<path fill="#CCAB7E" d="M124.259,126.122c0,8.724-7.439,15.796-16.616,15.796c-9.175,0-16.613-7.072-16.613-15.796
		c0-8.723,7.438-15.793,16.613-15.793C116.82,110.329,124.259,117.399,124.259,126.122"/>
</g>
<path fill="#2D4D79" d="M82.205,52.539c0,0,3.285-2.037,6.48-0.439c3.196,1.599,2.876,5.433,2.876,5.433v-0.321
	c0,0-0.383,3.633-0.724,4.16c-0.341,0.527-13.124,10.965-16.958,18.847S64.825,97.58,67.489,115.9c0,0,1.279,15.229,17.469,30.569
	c0,0,4.154,3.192,6.391,9.157c0,0,5.965,16.936,15.552,24.286c0,0,6.817,6.605,20.771,5.22
	c13.954-1.385,22.582-18.213,22.582-18.213s6.709-14.274,10.118-18.215c0,0,4.795-4.687,5.434-5.112s17.789-14.806,14.701-43.886
	c0,0,0.317-10.759-11.613-26.417c0,0-6.924-8.522-13.102-11.504c0,0-2.769-2.874-1.49-6.922c0,0,1.278-4.581,6.497-4.687
	c0,0,6.711,0.318,15.02,8.414s12.568,20.983,12.568,20.983s5.326,18.852,3.729,27.587c0,0,0.106,7.029-3.622,17.786
	c-3.728,10.758-11.292,21.197-17.683,26.416c-6.392,5.22-8.628,12.462-9.374,13.42c-0.744,0.959-7.348,14.917-9.053,16.728
	c-1.706,1.81-6.18,8.843-9.056,10.44c-2.875,1.598-3.94,3.518-11.93,5.86c-7.988,2.343-17.468-0.425-17.468-0.425
	s-5.646-1.172-12.037-6.712c-6.392-5.54-12.464-18.644-16.084-26.312c-3.622-7.669-4.048-7.35-5.113-8.84
	c-1.064-1.491-6.072-6.072-6.072-6.072s-8.308-6.603-16.084-25.244c0,0-5.752-14.699-1.491-34.192
	C57.05,90.013,62.836,65.448,82.205,52.539z"/>
</svg>
